<svg width="256" height="256" viewBox="0 0 256 256" fill="none" xmlns="http://www.w3.org/2000/svg">
<rect width="256" height="256" rx="4" fill="#111827"/>
<path d="M127.728 174.408C123.163 174.408 118.832 173.811 114.736 172.616C110.683 171.421 107.056 169.48 103.856 166.792C100.699 164.104 98.2027 160.541 96.368 156.104C94.576 151.667 93.68 146.205 93.68 139.72V83.4H114.8V138.824C114.8 143.56 115.291 147.357 116.272 150.216C117.296 153.032 118.768 155.08 120.688 156.36C122.608 157.597 124.955 158.216 127.728 158.216C130.501 158.216 132.827 157.597 134.704 156.36C136.624 155.08 138.075 153.032 139.056 150.216C140.037 147.357 140.528 143.56 140.528 138.824V83.4H161.648V139.72C161.648 146.205 160.752 151.667 158.96 156.104C157.168 160.541 154.693 164.104 151.536 166.792C148.421 169.48 144.816 171.421 140.72 172.616C136.667 173.811 132.336 174.408 127.728 174.408Z" fill="white"/>
</svg>